<svg xmlns="http://www.w3.org/2000/svg" viewBox="0 0 1010 1005"><defs><style>.cls-1{fill:none;stroke:#000;stroke-miterlimit:10;stroke-width:10px;}</style></defs><title>facebook-logo</title><g id="Layer_2" data-name="Layer 2"><g id="Layer_1-2" data-name="Layer 1"><path class="cls-1" d="M1005,505C1005,228.86,781.14,5,505,5S5,228.86,5,505C5,754.56,187.84,961.42,426.88,998.92V649.53h-127V505h127V394.84c0-125.31,74.64-194.53,188.85-194.53,54.71,0,111.93,9.77,111.93,9.77v123h-63c-62.11,0-81.49,38.55-81.49,78.09V505H721.8L699.63,649.53H583.12V998.92C822.16,961.42,1005,754.56,1005,505Z"/><path d="M699.63,649.53,721.8,505H583.12V411.21c0-39.54,19.38-78.09,81.49-78.09h63v-123s-57.22-9.77-111.93-9.77c-114.21,0-188.85,69.22-188.85,194.53V505h-127V649.53h127V998.92a504.91,504.91,0,0,0,156.24,0V649.53Z"/></g></g></svg>