<?xml version="1.0" standalone="no"?>
<!DOCTYPE svg PUBLIC "-//W3C//DTD SVG 20010904//EN"
 "http://www.w3.org/TR/2001/REC-SVG-20010904/DTD/svg10.dtd">
<svg version="1.0" xmlns="http://www.w3.org/2000/svg"
 width="260.000000pt" height="260.000000pt" viewBox="0 0 260.000000 260.000000"
 preserveAspectRatio="xMidYMid meet">
<metadata>
Created by potrace 1.11, written by Peter Selinger 2001-2013
</metadata>
<g transform="translate(0.000000,260.000000) scale(0.100000,-0.100000)"
fill="#000000" stroke="none">
<path d="M292 2460 c-102 -21 -202 -104 -250 -208 -37 -82 -37 -203 0 -282 57
-120 959 -1668 997 -1712 26 -30 67 -59 108 -80 59 -29 75 -32 153 -32 77 0
94 3 151 31 35 18 81 49 101 70 34 35 961 1624 1011 1733 16 34 21 66 21 131
0 77 -3 93 -32 151 -38 78 -101 139 -180 176 l-57 27 -990 2 c-545 0 -1009 -3
-1033 -7z m884 -99 c44 -22 89 -50 102 -61 l23 -22 -23 -25 c-31 -33 -157 -94
-198 -96 -30 -2 -34 2 -42 31 l-9 32 -350 0 -351 0 -34 -34 c-59 -59 -53 -76
100 -340 180 -312 171 -292 151 -322 -15 -24 -48 -31 -71 -16 -17 10 -293 489
-310 536 -18 50 -18 82 2 139 19 56 86 121 140 136 24 7 169 11 382 11 205 0
342 4 342 9 0 5 4 21 10 35 13 36 43 33 136 -13z m1139 -50 c78 -35 136 -124
135 -206 -1 -49 -21 -90 -154 -319 l-127 -219 28 -29 28 -30 -46 -42 c-48 -43
-155 -106 -182 -106 -31 0 -35 166 -6 250 10 28 15 31 38 25 14 -4 32 -8 39
-9 7 0 71 100 142 224 135 232 144 258 118 315 -24 54 -35 55 -440 55 -322 0
-377 2 -396 16 -26 18 -28 50 -5 76 15 17 41 18 402 18 352 0 390 -2 426 -19z
m-876 -232 c160 -36 262 -159 262 -318 1 -137 -80 -259 -225 -343 -156 -90
-246 -159 -246 -189 0 -5 111 -10 248 -11 l247 -3 3 -112 3 -113 -427 0 -426
0 7 57 c8 68 48 182 82 238 42 67 122 142 248 233 183 132 233 191 221 257
-15 76 -86 116 -167 95 -54 -15 -86 -48 -101 -104 l-12 -46 -134 0 -135 0 7
53 c9 65 43 142 86 190 94 108 283 155 459 116z m-731 -756 c84 -51 132 -91
132 -109 0 -8 -11 -25 -24 -37 -23 -22 -23 -24 -8 -52 12 -23 15 -51 13 -117
l-3 -88 55 0 55 0 142 -245 c78 -135 153 -254 167 -265 41 -32 98 -27 137 13
17 17 92 137 165 265 l133 232 59 0 59 0 0 102 c0 90 3 106 25 144 34 57 58
71 91 49 14 -9 24 -25 24 -40 0 -31 -432 -779 -478 -827 -83 -87 -208 -88
-297 -4 -31 29 -99 140 -240 386 -109 190 -203 351 -210 358 -9 10 -18 10 -40
2 -22 -8 -32 -8 -42 3 -23 23 -35 199 -18 255 7 21 39 13 103 -25z"/>
</g>
</svg>
