<svg xmlns="http://www.w3.org/2000/svg" viewBox="0 0 1010 1010"><defs><style>.cls-1{fill:none;stroke:#000;stroke-miterlimit:10;stroke-width:10px;}</style></defs><title>twitter-logo</title><g id="Layer_2" data-name="Layer 2"><g id="Layer_1-2" data-name="Layer 1"><g id="Dark_Blue" data-name="Dark Blue"><circle class="cls-1" cx="505" cy="505" r="500"/></g><g id="Logo_FIXED" data-name="Logo — FIXED"><path d="M413.5,768.75c221.75,0,343-183.75,343-343,0-5.25,0-10.5-.25-15.5a247,247,0,0,0,60.25-62.5,244.68,244.68,0,0,1-69.25,19,120.48,120.48,0,0,0,53-66.75,244.12,244.12,0,0,1-76.5,29.25,120.62,120.62,0,0,0-208.5,82.5,110.47,110.47,0,0,0,3.25,27.5c-100.25-5-189-53-248.5-126A120.49,120.49,0,0,0,307.5,474,118.42,118.42,0,0,1,253,459v1.5a120.68,120.68,0,0,0,96.75,118.25A120.17,120.17,0,0,1,318,583a115.1,115.1,0,0,1-22.75-2.25,120.37,120.37,0,0,0,112.5,83.75A242.33,242.33,0,0,1,258,716a219.21,219.21,0,0,1-28.75-1.75,335.87,335.87,0,0,0,184.25,54.5"/></g></g></g></svg>